/* XPM */
static char * bitcoin32_xpm[] = {
"32 32 215 2",
"  	c None",
". 	c #222222",
"+ 	c #232323",
"@ 	c #242424",
"# 	c #252525",
"$ 	c #262626",
"% 	c #272727",
"& 	c #282828",
"* 	c #292929",
"= 	c #2A2A2A",
"- 	c #2B2B2B",
"; 	c #2C2C2C",
"> 	c #2D2D2D",
", 	c #2E2E2E",
"' 	c #2F2F2F",
") 	c #303030",
"! 	c #313131",
"~ 	c #323232",
"{ 	c #333333",
"] 	c #343434",
"^ 	c #353535",
"/ 	c #363636",
"( 	c #373737",
"_ 	c #383838",
": 	c #393939",
"< 	c #3A3A3A",
"[ 	c #3B3B3B",
"} 	c #3C3C3C",
"| 	c #3D3D3D",
"1 	c #3E3E3E",
"2 	c #3F3F3F",
"3 	c #404040",
"4 	c #414141",
"5 	c #424242",
"6 	c #434343",
"7 	c #444444",
"8 	c #454545",
"9 	c #464646",
"0 	c #474747",
"a 	c #484848",
"b 	c #494949",
"c 	c #4A4A4A",
"d 	c #4B4B4B",
"e 	c #4C4C4C",
"f 	c #4D4D4D",
"g 	c #4E4E4E",
"h 	c #4F4F4F",
"i 	c #505050",
"j 	c #515151",
"k 	c #525252",
"l 	c #535353",
"m 	c #545454",
"n 	c #555555",
"o 	c #565656",
"p 	c #575757",
"q 	c #585858",
"r 	c #595959",
"s 	c #5A5A5A",
"t 	c #5B5B5B",
"u 	c #5C5C5C",
"v 	c #5D5D5D",
"w 	c #5E5E5E",
"x 	c #5F5F5F",
"y 	c #606060",
"z 	c #616161",
"A 	c #626262",
"B 	c #636363",
"C 	c #646464",
"D 	c #656565",
"E 	c #666666",
"F 	c #676767",
"G 	c #686868",
"H 	c #696969",
"I 	c #6A6A6A",
"J 	c #6C6C6C",
"K 	c #6D6D6D",
"L 	c #6E6E6E",
"M 	c #6F6F6F",
"N 	c #707070",
"O 	c #717171",
"P 	c #727272",
"Q 	c #737373",
"R 	c #747474",
"S 	c #757575",
"T 	c #767676",
"U 	c #777777",
"V 	c #787878",
"W 	c #797979",
"X 	c #7A7A7A",
"Y 	c #7B7B7B",
"Z 	c #7C7C7C",
"` 	c #7D7D7D",
" .	c #808080",
"..	c #818181",
"+.	c #848484",
"@.	c #858585",
"#.	c #868686",
"$.	c #878787",
"%.	c #888888",
"&.	c #898989",
"*.	c #8A8A8A",
"=.	c #8B8B8B",
"-.	c #8D8D8D",
";.	c #8E8E8E",
">.	c #8F8F8F",
",.	c #909090",
"'.	c #919191",
").	c #929292",
"!.	c #939393",
"~.	c #959595",
"{.	c #979797",
"].	c #989898",
"^.	c #999999",
"/.	c #9A9A9A",
"(.	c #9B9B9B",
"_.	c #9C9C9C",
":.	c #9D9D9D",
"<.	c #9E9E9E",
"[.	c #9F9F9F",
"}.	c #A0A0A0",
"|.	c #A1A1A1",
"1.	c #A2A2A2",
"2.	c #A3A3A3",
"3.	c #A4A4A4",
"4.	c #A5A5A5",
"5.	c #A6A6A6",
"6.	c #A7A7A7",
"7.	c #A8A8A8",
"8.	c #A9A9A9",
"9.	c #AAAAAA",
"0.	c #ABABAB",
"a.	c #ACACAC",
"b.	c #ADADAD",
"c.	c #AEAEAE",
"d.	c #AFAFAF",
"e.	c #B0B0B0",
"f.	c #B1B1B1",
"g.	c #B2B2B2",
"h.	c #B3B3B3",
"i.	c #B4B4B4",
"j.	c #B5B5B5",
"k.	c #B6B6B6",
"l.	c #B7B7B7",
"m.	c #B8B8B8",
"n.	c #B9B9B9",
"o.	c #BABABA",
"p.	c #BBBBBB",
"q.	c #BCBCBC",
"r.	c #BDBDBD",
"s.	c #BEBEBE",
"t.	c #BFBFBF",
"u.	c #C0C0C0",
"v.	c #C1C1C1",
"w.	c #C2C2C2",
"x.	c #C3C3C3",
"y.	c #C4C4C4",
"z.	c #C5C5C5",
"A.	c #C6C6C6",
"B.	c #C7C7C7",
"C.	c #C8C8C8",
"D.	c #C9C9C9",
"E.	c #CACACA",
"F.	c #CBCBCB",
"G.	c #CCCCCC",
"H.	c #CDCDCD",
"I.	c #CECECE",
"J.	c #CFCFCF",
"K.	c #D0D0D0",
"L.	c #D1D1D1",
"M.	c #D2D2D2",
"N.	c #D3D3D3",
"O.	c #D4D4D4",
"P.	c #D5D5D5",
"Q.	c #D6D6D6",
"R.	c #D7D7D7",
"S.	c #D8D8D8",
"T.	c #D9D9D9",
"U.	c #DADADA",
"V.	c #DBDBDB",
"W.	c #DCDCDC",
"X.	c #DDDDDD",
"Y.	c #DEDEDE",
"Z.	c #DFDFDF",
"`.	c #E0E0E0",
" +	c #E1E1E1",
".+	c #E2E2E2",
"++	c #E3E3E3",
"@+	c #E4E4E4",
"#+	c #E5E5E5",
"$+	c #E6E6E6",
"%+	c #E7E7E7",
"&+	c #E8E8E8",
"*+	c #E9E9E9",
"=+	c #EAEAEA",
"-+	c #EBEBEB",
";+	c #ECECEC",
">+	c #EDEDED",
",+	c #EEEEEE",
"'+	c #EFEFEF",
")+	c #F0F0F0",
"!+	c #F1F1F1",
"~+	c #F2F2F2",
"{+	c #F3F3F3",
"]+	c #F4F4F4",
"^+	c #F5F5F5",
"/+	c #F6F6F6",
"(+	c #F7F7F7",
"_+	c #F8F8F8",
":+	c #F9F9F9",
"<+	c #FAFAFA",
"[+	c #FBFBFB",
"}+	c #FCFCFC",
"|+	c #FDFDFD",
"1+	c #FEFEFE",
"2+	c #FFFFFF",
"                            O S U Q M                           ",
"                    u r x d ` '.!.%.D j w q                     ",
"                e c F .+L.S.W.Y.Y.X.U.O.U.1.2 6                 ",
"              ( q O.S.Z.@+&+=+-+-+=+&+#+`.U.J.r.: 6             ",
"          c ' O.M.Y.#+*+;+'+)+!+!+)+'+>+=+$+`.Q.O.^ ,           ",
"        0 & T.O.`.%+;+,+!+~+{+{+{+{+!+)+'+>+&+.+S.D.o >         ",
"        , T.O.Z.$+=+>+'+)+)+)+)+)+)+)+)+'+>+-+-+D R.B.b ^       ",
"      { S.H.V.++%+=+;+;+;+>+>+>+>+>+>+>+;+;+4.~ { 0.N.A.* 8     ",
"    : H z.P.Y.@+$+&+&+*+*+*+*+*+*+*+*+*+,+~ { { { E S.F.$+^     ",
"    / y.G.R.Z..+@+@+#+#+#+#+#+#+#+#+#+Y.! { { { { &.T.L.t.t |   ",
"  } ` u.J.S.X.`.`. + + + + + + + + +7.{ { , ! { { $+U.M.z. +_   ",
"  : R.y.K.R.V.W.X.X.X.X.X.X.X.X.X.C { { ! h { { H W.T.N.C.k.)   ",
"  ~ h.y.J.P.Q.R.S.S.S.S.S.S.R.R.m.{ { { o.{ { , S.Q.Q.K.B.m.<.: ",
"< t g.x.G.M.M.N.N.N.N.N.N.M.M.N $.{ { z.~ { ! R.N.M.M.H.A.m.@+^ ",
"( /.f.t.C.G.H.I.I.I.I.I.I.G.( - / { ;.' { { H.I.I.H.H.D.w.k.A.] ",
"] u.C.S. +@+#+$+$+$+$+$+$+>+{ { { r y { { i.$+$+$+$+@+.+U.I.N.~ ",
"! H.J.`.*+,+)+!+!+!+!+)+<.u.{ { ~ :.' K $.!+!+!+!+)+'+=+++Q.V.' ",
"! r.P.$+'+/+(+:+:+:+:+l.~.U { ' C.{ ' q :+:+:+:+:+_+(+~+*+V.;+; ",
") &.Q.=+^+[+}+1+1+1+1+ +O % { @+{ { { {+1+1+1+1+1+|+}+(+>+X.2+- ",
"  ] M.$+~+:+[+|+1+1+b.2+{ { }.{ { {  .1+1+1+1+1+1+}+[+^+-+S.%+= ",
"  $ =+Z.,+/+<+}+~.2+* 2+{ ^ { { { ' }+|+|+|+|+|+[+[+_+!+#+L.T , ",
"  * ;+Q.%+!+|+^+N.2+{ %+{ * y X D 2+[+[+[+[+[+[+<+_+{+=+V.'+$   ",
"  > < P.X.*+!+P.B / { > 2+1+[+:+_+_+_+_+_+_+_+(+/+{+;+.+I.@+*   ",
"    - :+J.Z.&+'+y { ~ :.@.v a k +.]+^+^+^+]+]+{+)+=+.+O.-+-     ",
"    ; , @+L.Y.$+;.n y & !+!+!+!+!+!+!+!+)+'+'+;+&+`.P.G.l.;     ",
"      ,  .I.H.S..+].j.9.{+m.=+*+*+=+=+*+&+%+#+ +U.K.w.(+'       ",
"        ~ n.B.z.+.Q.V.Y.`.`. +.+.+ + +`.Z.W.S.M.D.q.]+! =       ",
"          ^ 7.G.o.z.F.J.M.O.P.P.Q.Q.P.N.K.G.B.s.q.{+{ -         ",
"            ^ q `.f.i.o.t.w.y.z.y.y.x.u.q.k.b.F.C.^ *           ",
"              , { j.M.e.3.8.b.c.c.b.0.5.8.v.-+[ ^               ",
"                  ' , E Z.W.t.h.h.l.K.-+3.) ~ &                 ",
"                      & - * @ . . . $ - *                       "};
