/* XPM */
static char * bitcoin16_xpm[] = {
"16 16 115 2",
"  	c None",
". 	c #5C5C5C",
"+ 	c #7F7F7F",
"@ 	c #838383",
"# 	c #737373",
"$ 	c #6C6C6C",
"% 	c #B7B7B7",
"& 	c #E2E2E2",
"* 	c #E0E0E0",
"= 	c #DADADA",
"- 	c #DCDCDC",
"; 	c #CACACA",
"> 	c #8C8C8C",
", 	c #3D3D3D",
"' 	c #989898",
") 	c #E1E1E1",
"! 	c #E9E9E9",
"~ 	c #F0F0F0",
"{ 	c #E4E4E4",
"] 	c #EDEDED",
"^ 	c #EEEEEE",
"/ 	c #C4C4C4",
"( 	c #484848",
"_ 	c #9B9B9B",
": 	c #DBDBDB",
"< 	c #E8E8E8",
"[ 	c #E3E3E3",
"} 	c #EBEBEB",
"| 	c #8A8A8A",
"1 	c #2A2A2A",
"2 	c #ADADAD",
"3 	c #474747",
"4 	c #646464",
"5 	c #D1D1D1",
"6 	c #E5E5E5",
"7 	c #DFDFDF",
"8 	c #DEDEDE",
"9 	c #D9D9D9",
"0 	c #4C4C4C",
"a 	c #323232",
"b 	c #2D2D2D",
"c 	c #B8B8B8",
"d 	c #ABABAB",
"e 	c #D3D3D3",
"f 	c #DDDDDD",
"g 	c #D5D5D5",
"h 	c #BFBFBF",
"i 	c #333333",
"j 	c #494949",
"k 	c #373737",
"l 	c #565656",
"m 	c #C1C1C1",
"n 	c #616161",
"o 	c #515151",
"p 	c #CECECE",
"q 	c #D4D4D4",
"r 	c #B0B0B0",
"s 	c #757575",
"t 	c #383838",
"u 	c #4E4E4E",
"v 	c #C7C7C7",
"w 	c #BCBCBC",
"x 	c #7E7E7E",
"y 	c #666666",
"z 	c #C9C9C9",
"A 	c #C5C5C5",
"B 	c #2B2B2B",
"C 	c #2E2E2E",
"D 	c #707070",
"E 	c #272727",
"F 	c #D8D8D8",
"G 	c #696969",
"H 	c #F1F1F1",
"I 	c #F7F7F7",
"J 	c #BABABA",
"K 	c #303030",
"L 	c #7C7C7C",
"M 	c #F2F2F2",
"N 	c #F3F3F3",
"O 	c #A3A3A3",
"P 	c #F6F6F6",
"Q 	c #FCFCFC",
"R 	c #D7D7D7",
"S 	c #575757",
"T 	c #313131",
"U 	c #F4F4F4",
"V 	c #EFEFEF",
"W 	c #909090",
"X 	c #D6D6D6",
"Y 	c #969696",
"Z 	c #555555",
"` 	c #ECECEC",
" .	c #D0D0D0",
"..	c #393939",
"+.	c #3A3A3A",
"@.	c #E7E7E7",
"#.	c #BEBEBE",
"$.	c #B2B2B2",
"%.	c #878787",
"&.	c #C0C0C0",
"*.	c #E6E6E6",
"=.	c #4A4A4A",
"-.	c #A8A8A8",
";.	c #CBCBCB",
">.	c #D2D2D2",
",.	c #CCCCCC",
"'.	c #C2C2C2",
").	c #CDCDCD",
"!.	c #A9A9A9",
"~.	c #B9B9B9",
"{.	c #AEAEAE",
"].	c #A6A6A6",
"^.	c #BBBBBB",
"/.	c #464646",
"(.	c #5B5B5B",
"            . + @ #             ",
"        $ % & * = - ; > ,       ",
"      ' ) ! ~ { ] ^ ! ) / (     ",
"    _ : < < [ ! ) { } | 1 2 3   ",
"  4 5 * 6 * * 7 8 9 0 a b c d   ",
"  c e f 8 7 f g h i j k l 5 m n ",
"o m p e q q g r s t u t ; v w x ",
"y z : 8 * * A B C D E p F e ; ' ",
"G f H H I 7 J K L 0 ! M M N * O ",
"u < P I Q R 0 S T # U I U V [ W ",
"  g ] X Y Z 3 $ $ ] ` ] } {  .4 ",
"  $ 9 6 ..+.d O J ] @.6 & F #.  ",
"    $.z r %.&.< @.7 [ *.: X =.  ",
"    a -.w ;.>.X X g ,.'.).Z     ",
"        D !.~.{.].2 ^.| t       ",
"            /.4 G (.            "};
