/* XPM */
static char * bitcoin64_xpm[] = {
"64 64 215 2",
"  	c None",
". 	c #222222",
"+ 	c #232323",
"@ 	c #242424",
"# 	c #252525",
"$ 	c #262626",
"% 	c #272727",
"& 	c #282828",
"* 	c #292929",
"= 	c #2A2A2A",
"- 	c #2B2B2B",
"; 	c #2C2C2C",
"> 	c #2D2D2D",
", 	c #2E2E2E",
"' 	c #2F2F2F",
") 	c #303030",
"! 	c #313131",
"~ 	c #323232",
"{ 	c #333333",
"] 	c #343434",
"^ 	c #353535",
"/ 	c #363636",
"( 	c #373737",
"_ 	c #383838",
": 	c #393939",
"< 	c #3A3A3A",
"[ 	c #3B3B3B",
"} 	c #3C3C3C",
"| 	c #3D3D3D",
"1 	c #3E3E3E",
"2 	c #3F3F3F",
"3 	c #404040",
"4 	c #414141",
"5 	c #424242",
"6 	c #434343",
"7 	c #444444",
"8 	c #454545",
"9 	c #464646",
"0 	c #474747",
"a 	c #484848",
"b 	c #494949",
"c 	c #4A4A4A",
"d 	c #4B4B4B",
"e 	c #4C4C4C",
"f 	c #4D4D4D",
"g 	c #4E4E4E",
"h 	c #4F4F4F",
"i 	c #505050",
"j 	c #515151",
"k 	c #525252",
"l 	c #535353",
"m 	c #545454",
"n 	c #555555",
"o 	c #565656",
"p 	c #575757",
"q 	c #585858",
"r 	c #595959",
"s 	c #5A5A5A",
"t 	c #5B5B5B",
"u 	c #5C5C5C",
"v 	c #5D5D5D",
"w 	c #5E5E5E",
"x 	c #5F5F5F",
"y 	c #606060",
"z 	c #616161",
"A 	c #626262",
"B 	c #636363",
"C 	c #646464",
"D 	c #656565",
"E 	c #666666",
"F 	c #676767",
"G 	c #686868",
"H 	c #696969",
"I 	c #6A6A6A",
"J 	c #6C6C6C",
"K 	c #6D6D6D",
"L 	c #6E6E6E",
"M 	c #6F6F6F",
"N 	c #707070",
"O 	c #717171",
"P 	c #727272",
"Q 	c #737373",
"R 	c #747474",
"S 	c #757575",
"T 	c #767676",
"U 	c #777777",
"V 	c #787878",
"W 	c #797979",
"X 	c #7A7A7A",
"Y 	c #7B7B7B",
"Z 	c #7C7C7C",
"` 	c #7D7D7D",
" .	c #808080",
"..	c #818181",
"+.	c #848484",
"@.	c #858585",
"#.	c #868686",
"$.	c #878787",
"%.	c #888888",
"&.	c #898989",
"*.	c #8A8A8A",
"=.	c #8B8B8B",
"-.	c #8D8D8D",
";.	c #8E8E8E",
">.	c #8F8F8F",
",.	c #909090",
"'.	c #919191",
").	c #929292",
"!.	c #939393",
"~.	c #959595",
"{.	c #979797",
"].	c #989898",
"^.	c #999999",
"/.	c #9A9A9A",
"(.	c #9B9B9B",
"_.	c #9C9C9C",
":.	c #9D9D9D",
"<.	c #9E9E9E",
"[.	c #9F9F9F",
"}.	c #A0A0A0",
"|.	c #A1A1A1",
"1.	c #A2A2A2",
"2.	c #A3A3A3",
"3.	c #A4A4A4",
"4.	c #A5A5A5",
"5.	c #A6A6A6",
"6.	c #A7A7A7",
"7.	c #A8A8A8",
"8.	c #A9A9A9",
"9.	c #AAAAAA",
"0.	c #ABABAB",
"a.	c #ACACAC",
"b.	c #ADADAD",
"c.	c #AEAEAE",
"d.	c #AFAFAF",
"e.	c #B0B0B0",
"f.	c #B1B1B1",
"g.	c #B2B2B2",
"h.	c #B3B3B3",
"i.	c #B4B4B4",
"j.	c #B5B5B5",
"k.	c #B6B6B6",
"l.	c #B7B7B7",
"m.	c #B8B8B8",
"n.	c #B9B9B9",
"o.	c #BABABA",
"p.	c #BBBBBB",
"q.	c #BCBCBC",
"r.	c #BDBDBD",
"s.	c #BEBEBE",
"t.	c #BFBFBF",
"u.	c #C0C0C0",
"v.	c #C1C1C1",
"w.	c #C2C2C2",
"x.	c #C3C3C3",
"y.	c #C4C4C4",
"z.	c #C5C5C5",
"A.	c #C6C6C6",
"B.	c #C7C7C7",
"C.	c #C8C8C8",
"D.	c #C9C9C9",
"E.	c #CACACA",
"F.	c #CBCBCB",
"G.	c #CCCCCC",
"H.	c #CDCDCD",
"I.	c #CECECE",
"J.	c #CFCFCF",
"K.	c #D0D0D0",
"L.	c #D1D1D1",
"M.	c #D2D2D2",
"N.	c #D3D3D3",
"O.	c #D4D4D4",
"P.	c #D5D5D5",
"Q.	c #D6D6D6",
"R.	c #D7D7D7",
"S.	c #D8D8D8",
"T.	c #D9D9D9",
"U.	c #DADADA",
"V.	c #DBDBDB",
"W.	c #DCDCDC",
"X.	c #DDDDDD",
"Y.	c #DEDEDE",
"Z.	c #DFDFDF",
"`.	c #E0E0E0",
" +	c #E1E1E1",
".+	c #E2E2E2",
"++	c #E3E3E3",
"@+	c #E4E4E4",
"#+	c #E5E5E5",
"$+	c #E6E6E6",
"%+	c #E7E7E7",
"&+	c #E8E8E8",
"*+	c #E9E9E9",
"=+	c #EAEAEA",
"-+	c #EBEBEB",
";+	c #ECECEC",
">+	c #EDEDED",
",+	c #EEEEEE",
"'+	c #EFEFEF",
")+	c #F0F0F0",
"!+	c #F1F1F1",
"~+	c #F2F2F2",
"{+	c #F3F3F3",
"]+	c #F4F4F4",
"^+	c #F5F5F5",
"/+	c #F6F6F6",
"(+	c #F7F7F7",
"_+	c #F8F8F8",
":+	c #F9F9F9",
"<+	c #FAFAFA",
"[+	c #FBFBFB",
"}+	c #FCFCFC",
"|+	c #FDFDFD",
"1+	c #FEFEFE",
"2+	c #FFFFFF",
"                                                      N O Q S V U S Q O M                                                       ",
"                                            F D D C G L Q U X Z Z X T P K G C D D                                               ",
"                                        u p r x x f d H ` &.'.~.!.'.%.X D a j z w q q v                                         ",
"                                  x l e k h 6 T }.I.$+V.P.N.M.M.M.M.N.Q.Y.&+B./.K 2 k j d n                                     ",
"                                e 6 c : F 0..+P.L.P.S.U.W.X.Y.Y.Y.X.X.V.U.R.O.K.U.++1.o 2 b 6 i                                 ",
"                            g } 4 ] Q I.T.L.Q.T.X.Z. +++@+$+$+%+$+$+#+@+.+ +Y.V.S.O.K.++v.w : 3 1 l                             ",
"                          1 ( ^ q G.O.L.S.W.Z..+@+$+&+*+=+=+-+-+-+-+=+*+&+%+#+++`.X.U.P.J.`.r.7 : ^ 6                           ",
"                      j ~ ] ) 3.X.J.Q.V.`.++#+%+*+=+;+>+,+,+'+,+'+'+,+,+>+-+=+&+$+@+.+Y.T.O.H.$+*.; { /                         ",
"                    c - ' b O.G.M.S.Y..+#+%+*+-+;+,+'+'+)+)+!+!+!+!+)+)+'+,+>+;+=+&+$+@+`.V.Q.J.O.D.^ ) , k                     ",
"                  0 = & E X.F.N.U.Z.++$+&+=+;+>+,+'+)+!+!+~+~+~+!+~+!+!+!+)+'+,+>+-+*+%+#+ +X.R.K.F. +0 ; ; g                   ",
"                0 - & Z T.H.O.U.`.++%+*+;+>+,+)+!+!+~+~+{+{+{+{+{+{+{+~+!+~+)+)+'+,+>+-+&+#+.+Y.S.L.D.$+o ; > h                 ",
"              d > = ` S.G.O.V.`.++%+*+=+>+,+'+'+!+!+~+~+!+!+~+~+~+~+~+~+~+!+)+)+)+,+>+-+=+&+#+.+.+S.M.C.&+n > )                 ",
"              ) , K T.E.O.T.Z..+$+&+=+;+>+,+'+)+)+)+)+)+)+)+)+)+)+)+)+)+)+)+)+)+'+'+>+>+-+*+-+K.D w.R.K.B.$+b ) ^               ",
"            / ! i X.C.L.S.X. +#+%+*+=+;+>+,+,+,+,+,+,+'+'+,+'+'+'+'+'+'+,+,+,+,+,+,+>+;+-+$+T = { 3  +P.H.A. +/ ! }             ",
"          2 { { S.y.H.P.V.Z.++$+%+*+=+-+;+;+;+;+;+>+>+>+>+>+>+>+>+>+>+>+>+>+>+;+;+;+;+{+4.~ ~ { { , 0.T.N.F.A.D.* ! 8           ",
"        c ~ ; h.x.E.M.T.X. +@+$+%+&+*+=+=+=+=+-+-+-+-+-+-+-+-+-+-+-+-+-+-+-+-+-+-+=+ +s , { { { { { X W.Q.J.A.N.*.{ ^           ",
"        : ^ H M.z.I.P.U.Y. +@+#+$+&+&+&+&+*+*+*+*+*+*+*+*+*+*+*+*+*+*+*+*+*+*+*+,+h.~ { { { { { { { E `.S.M.F.v.$+6 ^ 2         ",
"      5 ^ ' Q.t.D.L.R.V.Y. +++@+$+$+$+$+%+%+%+%+%+%+%+%+%+%+%+%+%+%+%+%+%+%+%+;+X ; { { { { { { { { I  +T.P.I.A.x.r.' ]         ",
"      _ / &.y.y.G.N.R.V.Z. +.+++@+@+@+#+#+#+#+#+#+#+#+#+#+#+#+#+#+#+#+#+#+#+Y.h ! { { { { { { { { ~ &.Y.T.Q.L.D.t.Y.t ( |       ",
"    5 ( ) T.q.A.J.N.S.W.Y.Z.`..+ +.+.+.+.+.+.+.+.+.+.+.+.+.+.+.+.+.+.+.+@+A.( { { { { ~ { { { { { - x.X.U.Q.M.F.x.t.w.! ^       ",
"    } _ ` y.u.D.J.O.S.W.X.Z.`.`.`. + + + + + + + + + + + + + + + + + +#+7., { { { { , i ! { { { { h $+X.U.R.M.H.z.o. +j _ |     ",
"    / ) B.m.v.E.K.P.S.V.X.X.Y.Y.Z.Z.Z.Z.Z.Z.Z.Z.Z.Z.Z.Z.Z.Z.Z.Z.Z.Z.$+#.; { { { { ' M ~ { { { { ; m.X.X.U.R.N.I.B.r.v.3./ :     ",
"  | : e R.o.y.F.K.O.R.T.V.W.W.W.X.X.X.X.X.X.X.X.X.X.X.X.X.X.X.X.X.Y.C ' { { { { ! N h { { { { ~ H  +W.V.T.Q.N.I.C.u.k..+) (     ",
"  [ _ ,.o.q.z.F.K.N.Q.S.T.U.T.U.U.V.V.V.V.V.V.V.V.V.V.V.V.U.V.V.W.7 ~ { { { { ~ r #.! { { { { } U.T.T.T.S.P.M.H.D.v.l.N.G : }   ",
"  / ~ u.h.r.y.E.J.M.P.Q.Q.R.R.S.S.S.S.S.S.S.S.S.S.S.S.S.R.S.R.R.m.> { { { { { 9 o.; { { { { , u.S.R.Q.Q.Q.O.K.H.B.w.m.s.<.( :   ",
"  / ~ Y.g.r.y.D.I.K.M.O.O.P.Q.Q.Q.Q.Q.Q.Q.Q.Q.Q.Q.Q.Q.P.P.O.S.O.3.' { { { { : L.} { { { { > <.R.Q.P.P.O.O.M.J.G.B.v.n.j.D.! ^   ",
"< ( t G.g.q.x.C.G.I.M.M.M.M.N.N.N.N.N.N.N.N.N.N.N.N.M.M.M.I.N N.$.~ { { { ! z.D ~ { { { ! U R.N.N.M.M.M.M.L.H.F.A.v.m.d.@+~ ^   ",
"_ ^ ..n.g.p.w.A.E.G.J.K.K.K.L.L.L.L.L.L.L.L.L.L.L.K.K.J.y.1 | O.E { { { > 0./., { { { { m R.L.L.L.L.K.K.K.I.F.D.z.u.m.b.R.n ^ < ",
"( ] /.d.f.n.t.y.C.E.G.H.H.I.I.I.I.I.I.I.I.I.I.I.I.H.G.n.( { - r./ { { > ;.t.' { { { { | H.I.I.I.I.I.H.H.H.G.D.A.w.r.k.a.A.R ] _ ",
"/ ) f.q.v.E.K.P.T.W.X.Y.Y.Z.Z.Z.Z.Z.Z.Z.Z.Z.Z.Z.Z.Y.++d { { { ^ ~ { ) V .+4 { { { { ) H.Z.Z.Z.Z.Z.Z.Y.Y.Y.X.V.R.N.I.A.p.J.&.{ / ",
"] , u.w.C.L.S.W. +++@+#+#+$+$+$+$+$+$+$+$+$+$+$+$+#+>+! { { { { { ~ r -+y ~ { { { ; i.%+$+$+$+$+$+$+$+#+@+@+.+Z.U.P.I.x.N.{.~ ^ ",
"{ > E.z.G.P.V. +#+%+*+*+-+-+;+;+;+;+;+;+;+;+-+-+w.*+X.* { { { { { 4 `...) { { { ) %.'+;+;+;+;+;+;+;+=+=+=+&+$+++Z.T.M.A.Q.[.! ] ",
"! - H.E.J.U.`.#+*+;+,+'+)+)+!+!+!+!+!+!+!+!+)+i <.'+u.> { { { { ~ I.:.; ' 5 K T $.(+!+!+!+!+!+!+!+!+)+'+'+>+=+&+++X.Q.E.V.[.' { ",
") = C.I.M.X.@+*+>+)+~+~+]+]+^+^+^+^+^+^+^+^+}.) /.{+[.! { { { - l.h.; ! !.2+1+}+/+]+^+^+^+^+^+^+^+^+{+{+{+!+'+;+%+ +S.H.++_.> ~ ",
"! * r.P.P.Z.$+-+'+{+/+/+(+(+:+:+:+:+:+:+:+:+l.' ~.[+U { { { ' !.C., { { ' n q l.:+:+:+:+:+:+:+:+:+_+_+(+(+^+~+,+*+@+V.I.;+;.; ~ ",
") = 7.Z.Q. +*+'+{+(+_+<+[+[+}+}+}+}+}+}+}+}+H.> =.2+9 { { ~ E Y.! { { { { { q 2+}+}+}+}+}+}+}+}+}+}+[+<+<+_+^+!+;+$+X.J._+U ; ! ",
") = &.;+Q..+=+)+^+_+[+}+}+|+1+1+1+1+1+1+1+1+ += O _+% { { 4 @+] { { { { { ~ {+|+1+1+1+1+1+1+1+1+1+|+|+}+}+<+(+{+>+%+X.M.2+r - ~ ",
"! = z :+M.Z.*+'+]+_+<+}+}+}+|+1+1+1+1+|+2+1+~+& _ :.! { ; K.( { { { { { - w.1+1+1+1+1+1+1+1+1+1+1+|+|+[+[+:+/+~+;+#+V.R.2+{ =   ",
"  = ] 2+M.W.$+;+~+(+:+[+[+|+|+1+1+1+1+_+b.1+2+% { , { > }.[ { { { { { !  .2+1+1+1+1+1+1+1+1+1+1+1+}+}+}+[+_+^+)+-+++S. +%+* =   ",
"  = & .+U.S.++=+)+]+_+:+[+[+}+[+2+|+|+<.w 2+2+$ { { ~ B 7 { { { { { { d 2+|+|+|+|+|+|+|+|+|+|+|+|+}+[+[+:+/+{+>+&+Z.M.'+l.$ >   ",
"  ; $ 6.=+O.Z.&+,+{+/+:+<+[+}+:+~.2+2+C * /+2+$ { { ^ 3 { { { { { { ' -+}+|+|+|+|+|+|+|+|+|+|+}+[+[+[+<+_+^+!+;+#+V.L.2+T % ,   ",
"  , & t 2+K.U.@+-+)+]+/+:+[+<+|+V N.2+0 ! }.2+% { { ~ { { { { { { > m.}+[+[+[+[+[+[+[+[+[+[+}+[+[+<+<+_+/+~+,+&+`.Q.X.2+{ & !   ",
"    * * ;+V.Q.Z.%+;+!+^+|+=.^+[+N.: 2+[ { [ %+= { > * 9 y O X W D @.2+[+[+[+[+[+[+[+[+[+[+[+[+<+<+:+_+/+{+'+=+@+V.K.'+x.$ =     ",
"    - $ ^.!+J.U.++&+,+!+]+N.> }.2+} <.1 { { > ; I z.|+2+2+1+|+|+2+|+:+<+<+<+<+<+<+<+<+<+:+:+_+_+(+(+/+{+)+-+$+Z.R.O.2+F & ;     ",
"    > * < 1+P.O.X.@+*+,+!+]+P.; B #./ 6 { { > u.2+2+1+|+[+<+:+_+_+_+_+_+_+_+_+_+_+_+_+_+_+(+(+/+/+^+{+)+;+%+.+U.I.*+@+* *       ",
"      = % 0.,+G.Q.Z.@+*+>+)+{+E.> 1 ! ~ { { ' = [ c s G S ..*.!.^.].~.$+(+(+(+(+(+(+(+/+^+^+^+]+]+!+'+;+%+.+W.M.M.|+Y * -       ",
"      ; - } :+R.J.R.Z.#+&+;+'+:+y ! { { ~ , :.[.@.M v j a b k D +.h.]+(+^+^+^+^+^+^+]+]+]+{+{+~+)+,+=+%+.+X.O.E.-+ +- -         ",
"        - * !./+E.K.T.Z.@+&+-+O.% <.> { C = m [+^+(+:+<+[+[+<+_+^+{+{+{+{+{+{+{+{+~+~+~+!+!+)+,+;+=+%+.+X.Q.G.T.2+B - -         ",
"        ; > , Y.@+B.L.S.Y.++$+k.;.^+n ~ y <.& A !+!+!+!+!+!+!+!+!+!+!+!+!+!+!+)+)+)+'+'+'+,+;+=+&+#+`.W.P.H.G.~+l.- ;           ",
"          ; , j :+R.A.J.Q.V.`.S..+,+~ H $ k.M.T 1 =.W.,+,+,+,+,+,+>+,+,+>+>+>+>+;+;+;+-+=+&+%+#+.+Y.U.O.G.z.&+=+( , -           ",
"            , ,  ._+I.z.H.O.S.W..+ .].,+j.b 9.)+{+Z.m.$+=+=+*+*+*+=+=+=+=+*+*+&+&+&+%+$+#+@+ +Y.U.R.K.E.w.Z.(+s ' ;             ",
"            = ) ' 5.)+D.w.E.K.P.0.V @+`. +;+u.D.#+#+$+#+$+$+$+$+$+#+$+$+$+$+#+#+@+++++ +Z.X.U.Q.N.I.B.t.T.(+Y ' '               ",
"              ; ~ ~ n.;+B.s.z.l.+.T.Q.S.V.X.Y.Z.`.`.`. + + +.+.+.+.+ + + + +`.`.Z.X.W.U.S.P.M.I.D.x.q.Q.]+,.! ~ =               ",
"                ; ] ] o.;+C.n.p.D.F.I.L.N.Q.S.T.U.V.W.W.X.X.X.X.X.X.X.X.W.V.U.T.S.R.P.N.K.H.D.x.r.o.R.{+).~ { =                 ",
"                  > ^ ] 7.)+G.k.o.t.z.C.F.H.J.L.M.N.O.O.P.P.P.Q.Q.P.Q.P.P.N.N.M.K.I.G.E.B.x.s.l.q.R.{++.{ ] -                   ",
"                    ; / { @.~+M.o.g.m.r.u.x.z.B.D.E.G.H.H.I.I.J.J.I.I.H.G.F.E.D.B.z.w.s.o.k.g.y.U.>+E { ^ =                     ",
"                      - ^ ] q Z.`.x.f.d.i.l.o.r.t.v.w.x.y.z.z.y.y.z.y.y.x.v.u.s.q.n.k.g.b.l.F.=+C.8 ^ { *                       ",
"                        * { / ( (.'+N.r.b.8.b.e.h.j.l.m.n.n.p.p.p.o.o.m.l.j.i.g.d.0.8.h.y.V.=+` ] ( )                           ",
"                            , / { a j.,+M.q.e.5.3.6.8.a.b.c.c.c.c.c.b.a.0.8.5.3.8.k.v.U.-+<.[ ] ^ ;                             ",
"                              & ) ^ ) 0 3.#+@+A.l.d.8.2.}.[.[.[.[.[.[.|.4.a.h.o.G.*+Y.>.[ ! ^ ,                                 ",
"                                  * ' ~ , ] E h.Z.-+W.H.t.j.h.h.h.h.l.w.K.`.-+V.3.o ) ' ~ , &                                   ",
"                                      & ; ' , * , 3 J ~.k.H.Q.U.T.Q.E.d.-.B [ - - ' ' - %                                       ",
"                                            & * - = * $ @ . . + . . . # $ * - - * %                                             ",
"                                                    % % % % % % $ % % % % %                                                     "};
